<svg width="19" height="20" viewBox="0 0 19 20" fill="none" xmlns="http://www.w3.org/2000/svg">
<path d="M7 17.0004C2.7 18.4004 2.7 14.5004 1 14.0004M13 19.0004V15.5004C13 14.5004 13.1 14.1004 12.5 13.5004C15.3 13.2004 18 12.1004 18 7.50044C17.9988 6.3054 17.5325 5.15775 16.7 4.30044C17.0905 3.26241 17.0545 2.11207 16.6 1.10044C16.6 1.10044 15.5 0.800439 13.1 2.40044C11.0672 1.87103 8.93276 1.87103 6.9 2.40044C4.5 0.800439 3.4 1.10044 3.4 1.10044C2.94548 2.11207 2.90953 3.26241 3.3 4.30044C2.46745 5.15775 2.00122 6.3054 2 7.50044C2 12.1004 4.7 13.2004 7.5 13.5004C6.9 14.1004 6.9 14.7004 7 15.5004V19.0004" stroke="black" stroke-linecap="round" stroke-linejoin="round"/>
</svg>
