<?xml version="1.0" standalone="no"?>
<!DOCTYPE svg PUBLIC "-//W3C//DTD SVG 20010904//EN"
 "http://www.w3.org/TR/2001/REC-SVG-20010904/DTD/svg10.dtd">
<svg version="1.0" xmlns="http://www.w3.org/2000/svg"
 width="184.000000pt" height="184.000000pt" viewBox="0 0 184.000000 184.000000"
 preserveAspectRatio="xMidYMid meet">
<metadata>
Created by potrace 1.14, written by Peter Selinger 2001-2017
</metadata>
<g transform="translate(0.000000,184.000000) scale(0.100000,-0.100000)"
fill="#000000" stroke="none">
<path d="M271 1762 c-53 -27 -72 -59 -172 -284 l-101 -230 4 -149 c3 -119 7
-153 20 -165 15 -15 14 -20 -2 -58 -27 -59 -27 -283 0 -335 17 -35 17 -37 -1
-71 -16 -29 -19 -56 -19 -165 0 -150 11 -183 73 -225 l37 -25 810 2 c767 1
812 2 842 20 66 38 73 59 74 216 1 103 -3 152 -14 179 -12 33 -12 43 0 75 20
51 18 313 -2 338 -11 14 -11 22 0 53 9 25 14 86 15 182 2 157 3 150 -66 298
-22 46 -39 86 -39 88 0 2 -22 50 -49 107 -43 90 -90 153 -119 158 -4 1 -290 2
-636 3 -506 1 -635 -1 -655 -12z m1280 -115 c24 -40 106 -227 111 -253 2 -14
-3 -19 -22 -21 -43 -4 -1403 -3 -1433 1 -15 2 -30 5 -32 8 -13 13 122 286 143
291 9 2 286 4 615 4 l598 1 20 -31z m172 -386 c17 -17 17 -265 0 -282 -10 -10
-193 -14 -797 -16 l-784 -4 -21 22 c-19 20 -21 35 -21 136 0 105 2 116 23 136
l22 22 783 -1 c597 -1 786 -4 795 -13z m6 -419 c5 -10 9 -67 10 -128 2 -95 -1
-114 -17 -134 l-19 -23 -783 0 -783 0 -19 23 c-25 30 -27 223 -2 258 l15 22
795 -1 c728 -1 795 -2 803 -17z m-31 -387 c33 -8 42 -43 42 -161 0 -84 -3
-108 -17 -124 -17 -20 -28 -20 -799 -20 -759 0 -782 1 -803 19 -22 19 -23 26
-19 141 3 105 6 124 22 135 14 11 73 14 254 15 130 0 237 2 238 3 5 5 1061 -3
1082 -8z"/>
<path d="M238 1159 c-21 -12 -24 -59 -6 -77 13 -13 47 -16 64 -4 24 15 26 50
5 71 -23 23 -37 25 -63 10z"/>
<path d="M556 1148 c-21 -29 -20 -44 3 -60 29 -21 1039 -18 1052 3 16 26 10
59 -13 68 -13 5 -249 9 -525 10 l-502 1 -15 -22z"/>
<path d="M253 752 c-41 -6 -42 -75 -1 -85 42 -11 77 27 58 63 -11 21 -27 27
-57 22z"/>
<path d="M553 733 c-14 -21 -14 -26 0 -47 l16 -24 497 0 c273 0 508 3 523 7
20 6 27 14 29 38 3 25 -1 33 -20 39 -13 4 -250 8 -527 9 l-503 1 -15 -23z"/>
<path d="M238 339 c-36 -20 -16 -79 26 -79 28 0 42 11 50 36 12 40 -35 67 -76
43z"/>
<path d="M575 343 c-37 -10 -46 -42 -17 -70 16 -17 53 -18 518 -17 359 1 507
5 522 13 27 15 29 56 3 70 -19 10 -987 14 -1026 4z"/>
</g>
</svg>
