<svg width="46" height="44" viewBox="0 0 46 44" fill="none" xmlns="http://www.w3.org/2000/svg">
<path d="M6.57691 1.05658C5.63514 1.5223 5.03098 2.28743 4.30244 3.98402C4.00036 4.66598 3.30736 6.24614 2.75651 7.477C2.20567 8.70786 1.35274 10.6373 0.87297 11.7351L0.00227491 13.7644V16.9912C0.00227491 20.3178 0.197737 21.4822 0.819662 21.9645C1.03289 22.1309 1.01512 22.214 0.730816 22.5966C0.108891 23.4449 0.00227491 24.0936 0.00227491 27.2705C0.00227491 30.4142 0.108891 31.0962 0.730816 31.9278C1.01512 32.327 1.01512 32.3769 0.730816 32.7595C0.553123 32.9923 0.322122 33.4248 0.197737 33.7408C-0.0688022 34.506 -0.0688022 40.3442 0.215506 41.0927C0.517584 41.9244 1.21059 42.7061 2.04574 43.1552L2.79205 43.5711H22.9957C42.7374 43.5711 43.2172 43.5711 43.8746 43.2384C44.7631 42.8226 45.5805 41.8911 45.847 41.0096C45.9714 40.5605 46.0247 39.1965 45.9892 37.0841C45.9359 34.1234 45.9003 33.7741 45.545 33.0921L45.1363 32.327L45.545 31.5952C45.9181 30.8966 45.9359 30.6304 45.9359 27.2705C45.9359 23.9106 45.9181 23.6445 45.545 22.9459L45.1363 22.214L45.545 21.4489C45.9181 20.7503 45.9359 20.4842 45.9359 17.0411V13.3818L43.5726 8.05916C42.2576 5.13171 41.0138 2.4704 40.7828 2.13773C40.5518 1.80507 40.0009 1.33934 39.5745 1.08984L38.7571 0.657379H23.0668H7.37653L6.57691 1.05658ZM38.455 3.36859C38.6682 3.56819 39.1125 4.33332 39.4323 5.06518C39.7522 5.79704 40.4096 7.26077 40.8894 8.34192C41.3692 9.40645 41.7601 10.3878 41.7601 10.5375C41.7601 10.787 40.0543 10.8036 23.0135 10.8036C6.15045 10.8036 4.2669 10.7704 4.2669 10.5375C4.2669 10.3213 4.87106 8.90745 6.79014 4.68262C7.09222 4.01729 7.50091 3.35196 7.71415 3.21889C8.01622 3.01929 10.2729 2.98603 23.0668 2.98603H38.0463L38.455 3.36859ZM42.7374 13.2321C43.3949 13.465 43.537 14.1802 43.537 17.0411C43.537 19.902 43.3949 20.6172 42.7374 20.8501C42.5775 20.9 33.6573 20.9499 22.9247 20.9499H3.41398L2.95198 20.4343C2.48998 19.9353 2.48998 19.902 2.48998 17.0411C2.48998 14.1802 2.48998 14.1469 2.95198 13.6479L3.41398 13.1323H22.9247C33.6573 13.1323 42.5775 13.1822 42.7374 13.2321ZM42.7374 23.5447C43.3949 23.7775 43.537 24.4928 43.537 27.3371C43.537 30.0316 43.537 30.0815 43.075 30.5805L42.613 31.0962H23.0135H3.41398L2.95198 30.5805C2.48998 30.0815 2.48998 30.0483 2.48998 27.2705C2.48998 24.4928 2.48998 24.4595 2.95198 23.9605L3.41398 23.4449H22.9247C33.6573 23.4449 42.5775 23.4948 42.7374 23.5447ZM42.6308 33.6577C43.4304 34.0569 43.537 34.5226 43.537 37.5166V40.2777L43.0217 40.7601L42.5064 41.2424H23.0135H3.52059L3.00528 40.7601L2.48998 40.2777V37.5C2.48998 34.4561 2.63213 33.9238 3.55613 33.6078C3.82267 33.508 11.7122 33.4414 23.0668 33.4414C39.2369 33.4248 42.2043 33.4581 42.6308 33.6577Z" fill="#394955"/>
<path d="M5.83061 16.0764C5.40415 16.5421 5.33307 16.908 5.52853 17.4569C6.0083 18.7044 7.64308 18.5381 7.92738 17.1908C8.14062 16.1263 6.55915 15.2946 5.83061 16.0764Z" fill="#394955"/>
<path d="M13.88 16.2261C13.4003 16.8082 13.4003 17.3072 13.9156 17.7563L14.3243 18.1223H27.0471C39.148 18.1223 39.7877 18.1056 40.1786 17.8229C40.6761 17.4403 40.7117 16.6086 40.2497 16.1263C39.9298 15.7936 39.7344 15.7936 27.0826 15.7936H14.2354L13.88 16.2261Z" fill="#394955"/>
<path d="M5.84842 26.4056C4.9955 27.0709 5.54634 28.4348 6.68358 28.4348C7.3055 28.4348 7.99851 27.8194 7.99851 27.2705C7.99851 27.1042 7.83858 26.7882 7.62535 26.5387C7.18112 26.023 6.45258 25.9565 5.84842 26.4056Z" fill="#394955"/>
<path d="M13.8978 26.4888C13.4003 26.9711 13.4003 27.4369 13.88 28.0024L14.2354 28.4348H27.0826C39.7344 28.4348 39.9298 28.4348 40.2497 28.1022C40.7117 27.6198 40.6761 26.7882 40.1786 26.4056C39.7877 26.1228 39.148 26.1062 27.0293 26.1062H14.271L13.8978 26.4888Z" fill="#394955"/>
<path d="M5.8484 36.5519C4.97771 37.2338 5.58186 38.5811 6.75463 38.5811C7.82079 38.5811 8.37164 37.0509 7.51871 36.4521C7.09225 36.1527 6.32817 36.2026 5.8484 36.5519Z" fill="#394955"/>
<path d="M13.8623 36.5851C13.4003 37.0176 13.418 37.5831 13.88 38.1487L14.2354 38.5811H27.0116C39.148 38.5811 39.7877 38.5645 40.1786 38.2817C40.6761 37.8992 40.7117 37.0675 40.2497 36.5851C39.9298 36.2525 39.7344 36.2525 27.0649 36.2525C14.4487 36.2525 14.2177 36.2525 13.8623 36.5851Z" fill="#394955"/>
</svg>
